<svg xmlns="http://www.w3.org/2000/svg" version="1.0" width="40" height="40" viewBox="0 0 600 600"><g fill="#757575"><path d="M285.8 27.1c-25.8 3.3-54.3 14-75.6 28.4-70.1 47-97.6 135.8-66.1 213.4 4.4 10.6 4.8 11.4 37.4 67.1 13.1 22.3 34.7 59.2 48 82 57 97.4 76.1 129.9 77.5 131.8 1.4 2 5.5-4.6 77-126.9 41.5-70.9 78.1-134 81.2-140 22-43 25.6-93.6 9.8-138.4-22.3-63-76.9-107.7-142.9-116.9-12-1.7-35.1-1.9-46.3-.5zM319.2 80c26.7 2.6 51.7 14.7 70.2 34 19.1 20.1 28.9 41.8 31.6 69.9 4.9 50.6-27.2 99.7-76 116.4-13.5 4.6-23.8 6-41 5.4-18.8-.5-30-3.2-45.3-10.5-27.9-13.4-49-37.5-58.6-67-4.2-12.8-5.5-22-5.4-37.7.1-11.5.5-15.7 2.6-23.6 6.1-23.4 15.7-40 32.5-56.3 16.7-16.2 42.6-28.3 65.2-30.5 12.3-1.2 12.5-1.2 24.2-.1z"/><path d="M288 98c-36.7 7.8-64.3 34.5-74.8 72.3-2.7 9.8-2.3 35.5.7 46.7 9.3 34.7 36.4 61.6 70.7 70.2 12.7 3.2 34.1 3.2 46.9 0 27.8-6.9 52.1-27.1 64.5-53.4 7-15 8.5-22 8.4-40.3 0-19.5-1.8-27.6-9.9-44-10.7-21.5-26.4-36.2-49.5-46.2-16.5-7.1-38.8-9.2-57-5.3zm40.3 17.9c22.2 5.7 41.8 22.2 51.7 43.4 7.4 15.8 9.5 37.9 5.2 53.8-7.7 28.3-29.6 49.8-58.2 57-7.2 1.8-10.3 2.1-22.4 1.6-11.7-.4-15.3-.9-21.3-3-26.8-9.5-45.2-29.2-52.4-56.2-3.1-11.5-3.1-29.1-.1-39.9 6.4-22.5 21.2-40.5 41.7-50.8 16.8-8.5 37.1-10.6 55.8-5.9z"/><path d="M303.2 135.3l-3.1 3.2 3.4 2.8 3.5 2.8 3.5-2.8 3.4-2.8-3.2-3.2c-1.8-1.8-3.4-3.3-3.8-3.3-.3 0-1.9 1.5-3.7 3.3zm5.5.6c1.6 2.6-.9 5-3.2 3.1-1.1-.9-1.2-1.6-.2-3.1.6-1 1.4-1.9 1.7-1.9.3 0 1.1.9 1.7 1.9zM280.4 135.7c-1.2 1.9.1 6.3 1.7 6.3 1.9 0 3-3.9 1.7-6-1.6-2.4-2-2.5-3.4-.3zm2.6 2.3c0 .5-.4 1-1 1-.5 0-1-.5-1-1 0-.6.5-1 1-1 .6 0 1 .4 1 1zM331.6 135.9c-1.4 1.5-1.5 2.4-.6 4 1.4 2.8 2.8 2.6 4.2-.4.9-2.1.9-2.9-.3-4.1-1.4-1.3-1.7-1.2-3.3.5z"/><path d="M280.6 144.1c-2 1.6-3 1.9-3.9 1-1.7-1.7-17.2-1.4-18.7.4-.7.8-2.1 1.5-3.1 1.5s-2.6 1.1-3.5 2.5c-2.3 3.5-.6 7.3 3.6 8.1l3 .6v38.2c0 23.2.4 39.6 1 41.8.7 2.4 2.4 4.8 4.7 6.5l3.6 2.8 38.6.3c36.2.2 38.8.1 42.1-1.6 1.9-1.1 4.4-3.5 5.5-5.3 1.9-3.2 2-5.5 2.3-35.7.3-28.5.8-35.4 2.5-31 .3 1 1 .8 2.3-.5 1.8-1.6 1.8-1.8 0-3.5-1.3-1.2-2-1.4-2.3-.5-1.2 3.2-2.3.7-2.3-5.2 0-5.7.2-6.5 1.8-6.5 2.6 0 5.2-3.1 5.2-6.1 0-2.9-1.7-4.9-4.1-4.9-.9 0-2.2-.7-2.9-1.5-1.5-1.8-18.5-2.2-19.5-.4-.5.7-1.6.3-3.1-1.1-2-2-3.1-2.2-8.5-1.8-4.6.3-6.5.9-7.8 2.5-1.4 1.7-2.8 2-10 2.1-7.5.2-8.6-.1-11.3-2.3-3.9-3.3-11.3-3.5-15.2-.4zm12.7 1.2c1.5 1 .6 1.2-5.5 1.4-6.6.2-7.1.1-5.4-1.3 2.4-1.7 8.6-1.8 10.9-.1zm37.1-.7c3.5 1.3 1.3 2.3-4.9 2.1-6.9-.2-7.5-1.3-1-2 2.2-.2 4.1-.4 4.2-.5.1-.1.8.1 1.7.4zm-55.7 3c1.3 3.5-1.1 4.9-8.6 5.2l-7.1.3V146h7.5c6.1 0 7.7.3 8.2 1.6zm79.1 1.6l-.3 3.1-7.5.1c-6.4.1-7.5-.1-7.8-1.7-.8-4 .4-4.7 8.3-4.7h7.6l-.3 3.2zm-61 4.9c.3 5.4.2 5.7-2.8 6.9-3.7 1.6-6.6 5.1-7.5 9.2-1 4.6-2.5 1.5-2.5-5.3 0-5.8.9-7.4 4.5-8.1 1.4-.2 2.1-1.3 2.3-3.3.5-3.7 2-5.7 4.1-5.3 1.2.2 1.7 1.7 1.9 5.9zm33-4.9c1.9 1.9 1.5 5.8-.6 5.8-4.8 0-5.8-6.3-1.1-6.9.3-.1 1 .4 1.7 1.1zm-69.8 1.6c0 1.1-.7 1.8-2 1.8-2 0-2.7-1.6-1.3-2.9 1.3-1.3 3.3-.7 3.3 1.1zm29-1.4c0 2-1.6 3.6-3.6 3.6-1.3 0-2.4-.2-2.4-.4s-.3-1.1-.6-2c-.5-1.3.1-1.6 3-1.6 2 0 3.6.2 3.6.4zm21.9 0c-.2.2-2.8 1.1-5.6 1.9-5.1 1.5-5.3 1.5-5.3-.4 0-1.7.7-1.9 5.7-1.9 3.1 0 5.4.2 5.2.4zm11.1 1.2c0 .8-.4 1.2-1 .9-.5-.3-2.9-1-5.2-1.4l-4.3-.9 5.3-.1c4.1-.1 5.2.2 5.2 1.5zm18-.6c0 1.8-5.2 3.3-6.2 1.8-1.4-2.3-.9-2.8 2.7-2.8 1.9 0 3.5.5 3.5 1zm24.4-.4c.9.3 1.6 1.2 1.6 2 0 1.6-4.2.4-4.8-1.4-.4-1.3.8-1.5 3.2-.6zm-40.6 5.8c7.7 3 8.1 3.4 6.5 4.8-1 .9-2.8 1.9-4 2.2-1.3.4-2.3 1.3-2.3 2s1 1.8 2.3 2.4c2.1 1 2.1 1.1-.7 1.1-1.7.1-4.3-1.1-6.8-3.1-6.5-5.1-15.3-5.3-17.6-.4-.9 1.9-1.1 1.9-1.7.4-1.1-2.8 2.6-9.1 6.5-11 5-2.4 8.4-2.1 17.8 1.6zm-50 3.2l2.2.4v39c0 25.3-.4 39-1 39-.5 0-1-.6-1-1.4 0-2.1-2-3-3.3-1.7-.8.8-.6 1.7 1 3.3 2.2 2.1 2.7 2.1 38.4 2.2 23.2.1 37-.2 38.3-.9 1.2-.6 2.2-2.1 2.4-3.3.4-2.7-1.4-2.9-2.8-.2-.6 1.1-2 2-3 2-2 0-2-.9-2-40v-40l2.5.2c1.4.1 2.5.6 2.5 1s1.1.8 2.4.8c1.3 0 2.7.7 3 1.6.3.9.6 13 .6 26.9 0 24.4-.1 25.4-2 26-1.1.3-2.4.3-3 0-1.4-.8-1.3.8.1 2.2.6.6 1.7.9 2.4.7.9-.4 1.4 1.9 1.9 8.5.9 10.9-.5 16.8-4.3 18.2-3.5 1.4-75.8.9-79.1-.4-6.1-2.6-6-1.4-6-45.5v-40.3l3.8.6c2 .3 4.7.8 6 1.1zm84.2 37.6c0 37.4-.1 39.5-2 42.5-2.4 4-3.4 4.3-1.4.5 1.1-2.3 1.4-10.2 1.4-40.6.1-20.7-.2-38.2-.6-38.8-.5-.7-.3-.8.6-.3 1 .6 1.2.4.7-.8-.3-1-.2-1.7.3-1.7.6 0 1 14.6 1 39.2zm-21-30.5c-.1 7.8-1.5 8.7-2 1.3-.3-3.3.8-9 1.6-9 .2 0 .4 3.5.4 7.7zm3.9 28.5c-.1 20-.4 37.8-.6 39.5l-.5 3.3h-57.7l-.6-5.3c-.3-2.8-.5-17.6-.3-32.7l.3-27.5 2.3 3.8c1.5 2.6 2.2 5.4 2.2 9 0 5.8 2.3 10.6 6.5 13.3 2.4 1.6 2.5 1.9 2.5 13.8 0 10.5.3 12.7 2.3 16.5 2.8 5.5 4.7 6.8 8.3 5.6 1.9-.7 3-2 3.6-4.3.9-3.4 2.8-4.4 2.8-1.4 0 3.5 3 6.3 6.3 6 2.5-.2 3.6-1.1 5.4-4.4 2-3.5 2.3-5.7 2.3-14.5.1-13.3.6-16.3 3.2-17.4 4.1-1.9 6.2-6.1 6.6-13.3.3-4.5 1.1-7.5 2.3-9.1 1.5-1.8 1.9-4.1 1.9-9.7 0-4.1.2-7.4.5-7.4s.5 16.3.4 36.2zm-63.2 23.5c-.1 10.9-.2 2-.2-19.7s.1-30.6.2-19.8c.2 10.9.2 28.7 0 39.5zM293 165c0 1.9-.5 3-1.4 3-.8 0-2.4 1.6-3.6 3.5-3.5 5.7-5.2 4.2-2.9-2.4.9-2.5 5.8-7.1 7.7-7.1.1 0 .2 1.3.2 3zm22 5.5c1.4.8 1.9 1.4 1.3 1.5-.7 0-1.3.4-1.3.9 0 1.3 4.7 2 5.9.8.7-.7 2.2 0 4.5 1.9 3.2 2.7 3.5 3.3 3.5 8.9.1 5.1-.3 6.4-2.4 8.8-2.6 2.7-2.6 2.7-17.8 2.9-19.1.2-18.7.2-21.5-2.6-1.8-1.7-2.5-3.8-2.9-8.2-.5-5.8-.4-6 3.4-10 2.2-2.2 4.8-4.6 5.9-5.2 2.8-1.7 18.4-1.4 21.4.3zm1.7 30.7c.9.7 1.3.7 1.3-.1 0-.6.5-1.1 1.1-1.1.6 0 .9 2.1.7 5.2l-.3 5.3h-26l-.3-3.4c-.7-7.5-.6-7.6 11.5-7.3 5.9.2 11.3.8 12 1.4zm-.2 18.3v6l-3.3.1c-3.8.1-5.2-1.8-3.4-4.6.6-1 .8-2.1.5-2.4-.8-.8-4.7-.8-6.8 0-1.4.6-1.4.9 0 3 .9 1.3 1.2 2.3.8 2.2-.4-.1-1.7.3-2.8.9-2.2 1.1-5.3 1.1-7.3-.1-1.3-.8-1.7-9.8-.5-11 .4-.3 5.7-.5 11.7-.4l11.1.3v6zm3.5.1c0 3.4-.4 5.3-1 4.9-1.6-1-1-10.5.6-10.5.2 0 .4 2.5.4 5.6zm-18.7 12.1c-.7.2-1.9.2-2.5 0-.7-.3-.2-.5 1.2-.5s1.9.2 1.3.5zm13.4-.1c-.3.3-1.2.4-1.9.1-.8-.3-.5-.6.6-.6 1.1-.1 1.7.2 1.3.5z"/><path d="M264 173.2c0 1.7 3.2 2.1 4.6.6 1.3-1.3 1.1-1.5-1.6-1.5-1.6 0-3 .4-3 .9zM293.2 173.1c.2.6.7 1 1.1 1 .4-.1 1.6-.1 2.8-.1 1.1 0 1.7-.5 1.4-1-.8-1.4-5.8-1.3-5.3.1zM293.4 179.4c-1.2 3.1 0 6.1 2.5 6.1 3.1 0 5-2.8 3.5-5.3-1.4-2.2-5.2-2.8-6-.8zM314.7 178.7c-1.1 1.1-.8 4.8.5 6.1 3.1 3.1 6.7-.2 5.3-4.8-.6-1.9-4.4-2.8-5.8-1.3zM304 185.6c0 1.8 3.1 2.6 4.6 1.3 2.2-1.8 1.7-2.6-1.6-2.5-1.6.1-3 .6-3 1.2zM251.2 170.3c-.7.8-.7 1.7.2 2.9 1.2 1.7 1.4 1.7 2.9 0 1.3-1.4 1.4-2.1.5-3-1.5-1.5-2.3-1.5-3.6.1zM245.5 488.1c-20.3 4.6-40.1 12.5-52.2 20.7-25.7 17.4-26.1 44.8-1 62.6 18.6 13.2 48.1 22.3 84.9 26.2 20.2 2.1 55.4 1.4 74.5-1.5 52.1-7.9 85.5-26.3 90.3-49.7 2.8-13.5-4.9-28-20.3-38.4-12.1-8.1-38.9-18.1-54.9-20.5l-4.5-.7-1.4 8.4-1.5 8.3 2.5.7c23.7 6.5 30 8.5 38.8 12.8 6.8 3.3 12.1 6.8 16.2 10.6 10.2 9.4 10.4 15.7.8 25.3-12.6 12.5-42.2 22.6-78.4 26.5-55 6.1-118.7-5.6-139.8-25.5-10.7-10.1-10.8-16.7-.6-26.1 9.8-9.1 28.9-17.5 50.4-22.3 6.3-1.4 7.7-2 7.3-3.4-.2-.9-1-4.6-1.6-8.4-1.4-7.4-1.4-7.4-9.5-5.6z"/></g></svg>